<svg width="130" height="48" viewBox="0 0 130 48" fill="none" xmlns="http://www.w3.org/2000/svg">
<rect width="130" height="48" fill="#1D3557"/>
<path d="M67.174 26.307H69.934V27.639H65.494V19.263H67.174V26.307ZM77.1818 24.171C77.1818 24.411 77.1658 24.627 77.1338 24.819H72.2738C72.3138 25.299 72.4818 25.675 72.7778 25.947C73.0738 26.219 73.4378 26.355 73.8698 26.355C74.4938 26.355 74.9378 26.087 75.2018 25.551H77.0138C76.8218 26.191 76.4538 26.719 75.9098 27.135C75.3658 27.543 74.6978 27.747 73.9058 27.747C73.2658 27.747 72.6898 27.607 72.1778 27.327C71.6738 27.039 71.2778 26.635 70.9898 26.115C70.7098 25.595 70.5698 24.995 70.5698 24.315C70.5698 23.627 70.7098 23.023 70.9898 22.503C71.2698 21.983 71.6618 21.583 72.1658 21.303C72.6698 21.023 73.2498 20.883 73.9058 20.883C74.5378 20.883 75.1018 21.019 75.5978 21.291C76.1018 21.563 76.4898 21.951 76.7618 22.455C77.0418 22.951 77.1818 23.523 77.1818 24.171ZM75.4418 23.691C75.4338 23.259 75.2778 22.915 74.9738 22.659C74.6698 22.395 74.2978 22.263 73.8578 22.263C73.4418 22.263 73.0898 22.391 72.8018 22.647C72.5218 22.895 72.3498 23.243 72.2858 23.691H75.4418ZM82.092 20.895C82.884 20.895 83.524 21.147 84.012 21.651C84.5 22.147 84.744 22.843 84.744 23.739V27.639H83.064V23.967C83.064 23.439 82.932 23.035 82.668 22.755C82.404 22.467 82.044 22.323 81.588 22.323C81.124 22.323 80.756 22.467 80.484 22.755C80.22 23.035 80.088 23.439 80.088 23.967V27.639H78.408V20.991H80.088V21.819C80.312 21.531 80.596 21.307 80.94 21.147C81.292 20.979 81.676 20.895 82.092 20.895ZM85.9096 24.291C85.9096 23.619 86.0416 23.023 86.3056 22.503C86.5776 21.983 86.9456 21.583 87.4096 21.303C87.8736 21.023 88.3896 20.883 88.9576 20.883C89.3896 20.883 89.8016 20.979 90.1936 21.171C90.5856 21.355 90.8976 21.603 91.1296 21.915V18.759H92.8336V27.639H91.1296V26.655C90.9216 26.983 90.6296 27.247 90.2536 27.447C89.8776 27.647 89.4416 27.747 88.9456 27.747C88.3856 27.747 87.8736 27.603 87.4096 27.315C86.9456 27.027 86.5776 26.623 86.3056 26.103C86.0416 25.575 85.9096 24.971 85.9096 24.291ZM91.1416 24.315C91.1416 23.907 91.0616 23.559 90.9016 23.271C90.7416 22.975 90.5256 22.751 90.2536 22.599C89.9816 22.439 89.6896 22.359 89.3776 22.359C89.0656 22.359 88.7776 22.435 88.5136 22.587C88.2496 22.739 88.0336 22.963 87.8656 23.259C87.7056 23.547 87.6256 23.891 87.6256 24.291C87.6256 24.691 87.7056 25.043 87.8656 25.347C88.0336 25.643 88.2496 25.871 88.5136 26.031C88.7856 26.191 89.0736 26.271 89.3776 26.271C89.6896 26.271 89.9816 26.195 90.2536 26.043C90.5256 25.883 90.7416 25.659 90.9016 25.371C91.0616 25.075 91.1416 24.723 91.1416 24.315ZM100.654 24.171C100.654 24.411 100.638 24.627 100.606 24.819H95.7464C95.7864 25.299 95.9544 25.675 96.2504 25.947C96.5464 26.219 96.9104 26.355 97.3424 26.355C97.9664 26.355 98.4104 26.087 98.6744 25.551H100.486C100.294 26.191 99.9264 26.719 99.3824 27.135C98.8384 27.543 98.1704 27.747 97.3784 27.747C96.7384 27.747 96.1624 27.607 95.6504 27.327C95.1464 27.039 94.7504 26.635 94.4624 26.115C94.1824 25.595 94.0424 24.995 94.0424 24.315C94.0424 23.627 94.1824 23.023 94.4624 22.503C94.7424 21.983 95.1344 21.583 95.6384 21.303C96.1424 21.023 96.7224 20.883 97.3784 20.883C98.0104 20.883 98.5744 21.019 99.0704 21.291C99.5744 21.563 99.9624 21.951 100.234 22.455C100.514 22.951 100.654 23.523 100.654 24.171ZM98.9144 23.691C98.9064 23.259 98.7504 22.915 98.4464 22.659C98.1424 22.395 97.7704 22.263 97.3304 22.263C96.9144 22.263 96.5624 22.391 96.2744 22.647C95.9944 22.895 95.8224 23.243 95.7584 23.691H98.9144ZM103.561 22.023C103.777 21.671 104.057 21.395 104.401 21.195C104.753 20.995 105.153 20.895 105.601 20.895V22.659H105.157C104.629 22.659 104.229 22.783 103.957 23.031C103.693 23.279 103.561 23.711 103.561 24.327V27.639H101.881V20.991H103.561V22.023ZM108.388 19.263V24.447C108.388 25.015 108.536 25.451 108.832 25.755C109.128 26.051 109.544 26.199 110.08 26.199C110.624 26.199 111.044 26.051 111.34 25.755C111.636 25.451 111.784 25.015 111.784 24.447V19.263H113.476V24.435C113.476 25.147 113.32 25.751 113.008 26.247C112.704 26.735 112.292 27.103 111.772 27.351C111.26 27.599 110.688 27.723 110.056 27.723C109.432 27.723 108.864 27.599 108.352 27.351C107.848 27.103 107.448 26.735 107.152 26.247C106.856 25.751 106.708 25.147 106.708 24.435V19.263H108.388ZM116.779 21.951C116.995 21.647 117.291 21.395 117.667 21.195C118.051 20.987 118.487 20.883 118.975 20.883C119.543 20.883 120.055 21.023 120.511 21.303C120.975 21.583 121.339 21.983 121.603 22.503C121.875 23.015 122.011 23.611 122.011 24.291C122.011 24.971 121.875 25.575 121.603 26.103C121.339 26.623 120.975 27.027 120.511 27.315C120.055 27.603 119.543 27.747 118.975 27.747C118.487 27.747 118.055 27.647 117.679 27.447C117.311 27.247 117.011 26.995 116.779 26.691V30.807H115.099V20.991H116.779V21.951ZM120.295 24.291C120.295 23.891 120.211 23.547 120.043 23.259C119.883 22.963 119.667 22.739 119.395 22.587C119.131 22.435 118.843 22.359 118.531 22.359C118.227 22.359 117.939 22.439 117.667 22.599C117.403 22.751 117.187 22.975 117.019 23.271C116.859 23.567 116.779 23.915 116.779 24.315C116.779 24.715 116.859 25.063 117.019 25.359C117.187 25.655 117.403 25.883 117.667 26.043C117.939 26.195 118.227 26.271 118.531 26.271C118.843 26.271 119.131 26.191 119.395 26.031C119.667 25.871 119.883 25.643 120.043 25.347C120.211 25.051 120.295 24.699 120.295 24.291Z" fill="white"/>
<rect x="20.4568" y="21" width="2.83111" height="17" rx="1.41555" transform="rotate(-90 20.4568 21)" fill="white"/>
<rect x="21.0601" y="17.6473" width="2.83111" height="20.7614" rx="1.41555" transform="rotate(30 21.0601 17.6473)" fill="white"/>
<rect x="41.2182" y="25.5666" width="2.83111" height="17" rx="1.41555" transform="rotate(90 41.2182 25.5666)" fill="#FFB703"/>
<rect x="40.615" y="28.9194" width="2.83111" height="19.1722" rx="1.41555" transform="rotate(-150 40.615 28.9194)" fill="#FFB703"/>
<rect x="46.8171" y="11.9265" width="2.5" height="8" rx="1.25" transform="rotate(-20.7274 46.8171 11.9265)" fill="#FFB703"/>
<rect x="49.4364" y="11.2025" width="2.5" height="9" rx="1.25" transform="rotate(80.9642 49.4364 11.2025)" fill="#FFB703"/>
</svg>
